<?xml version="1.0" encoding="UTF-8" standalone="no"?>
<!-- Created with Inkscape (http://www.inkscape.org/) -->

<svg
   xmlns:dc="http://purl.org/dc/elements/1.1/"
   xmlns:cc="http://creativecommons.org/ns#"
   xmlns:rdf="http://www.w3.org/1999/02/22-rdf-syntax-ns#"
   xmlns:svg="http://www.w3.org/2000/svg"
   xmlns="http://www.w3.org/2000/svg"
   xmlns:sodipodi="http://sodipodi.sourceforge.net/DTD/sodipodi-0.dtd"
   xmlns:inkscape="http://www.inkscape.org/namespaces/inkscape"
   version="1.1"
   id="svg2"
   width="64"
   height="64"
   viewBox="0 0 64 64"
   sodipodi:docname="shock.svg"
   inkscape:export-filename="D:\SteamLibrary\steamapps\common\Pathfinder Kingmaker\pathfinder-mods-1.0.2.1\EldritchArcana\images_sprites\forc.png"
   inkscape:export-xdpi="105.15759"
   inkscape:export-ydpi="105.15759"
   inkscape:version="0.92.3 (2405546, 2018-03-11)">
  <metadata
     id="metadata8">
    <rdf:RDF>
      <cc:Work
         rdf:about="">
        <dc:format>image/svg+xml</dc:format>
        <dc:type
           rdf:resource="http://purl.org/dc/dcmitype/StillImage" />
        <dc:title />
      </cc:Work>
    </rdf:RDF>
  </metadata>
  <defs
     id="defs6" />
  <sodipodi:namedview
     pagecolor="#ffffff"
     bordercolor="#666666"
     borderopacity="1"
     objecttolerance="10"
     gridtolerance="10"
     guidetolerance="10"
     inkscape:pageopacity="0"
     inkscape:pageshadow="2"
     inkscape:window-width="1920"
     inkscape:window-height="1017"
     id="namedview4"
     showgrid="false"
     inkscape:zoom="7.375"
     inkscape:cx="35.513394"
     inkscape:cy="24.329568"
     inkscape:window-x="-8"
     inkscape:window-y="-8"
     inkscape:window-maximized="1"
     inkscape:current-layer="svg2" />
  <circle
     style="fill:#a7543c;fill-opacity:0.93471566;stroke-width:0.06527466"
     cx="30.839371"
     cy="28.014635"
     r="16.710316"
     id="circle2" />
  <g
     class=""
     id="g6"
     transform="matrix(0.07298215,0,0,0.07298215,12.155943,9.1394734)">
    <path
       style="fill:#ffffff;fill-opacity:1"
       inkscape:connector-curvature="0"
       d="M 256,23 C 127.424,23 23,127.424 23,256 23,384.576 127.424,489 256,489 384.576,489 489,384.576 489,256 489,127.424 384.576,23 256,23 Z m -6.094,18.09 C 128.036,47.807 130.066,256 256,256 c 125.215,0 127.935,205.872 8.168,214.83 -2.71,0.1 -5.432,0.17 -8.168,0.17 C 137.152,471 41,374.848 41,256 41,139.19 133.883,44.31 249.906,41.09 Z M 256,103 c 22.537,0 41,18.463 41,41 0,22.537 -18.463,41 -41,41 -22.537,0 -41,-18.463 -41,-41 0,-22.537 18.463,-41 41,-41 z m 0,224 c -22.537,0 -41,18.463 -41,41 0,22.537 18.463,41 41,41 22.537,0 41,-18.463 41,-41 0,-22.537 -18.463,-41 -41,-41 z"
       id="path4" />
  </g>
  <path
     style="fill:#ac5841;fill-opacity:1"
     d="M 22.221092,59.535516 C 17.30203,57.774301 9.728814,52.766478 9.728814,51.274942 c 0,-1.543866 2.791243,-3.150548 3.495032,-2.011794 1.439949,2.329886 8.853575,6.145037 13.91714,7.161947 14.626246,2.93737 29.549066,-9.565459 29.578056,-24.781464 0.009,-4.812909 1.75256,-8.296325 3.35178,-6.697102 1.24749,1.247487 0.65426,11.979332 -0.91711,16.591048 -4.91443,14.423066 -22.70411,23.092298 -36.93262,17.997939 z"
     id="path4781"
     inkscape:connector-curvature="0" />
  <path
     style="fill:#ac5841;fill-opacity:1"
     d="m 30.349861,51.726033 c -0.84174,-2.193539 -7.16845,-4.606546 -10.129468,-3.863377 -2.73407,0.686207 -2.997914,0.223142 -1.484304,-2.605063 0.984866,-1.84024 1.101658,-1.839266 5.25,0.04378 5.136769,2.33172 9.106925,2.458239 14.742723,0.469813 5.38994,-1.90168 5.72356,-1.885051 6.91692,0.344756 0.89264,1.667922 0.56685,1.835674 -3.39871,1.75 -3.49806,-0.07557 -4.96718,0.461971 -7.25682,2.655244 -3.317352,3.177733 -3.831997,3.311359 -4.640341,1.204847 z"
     id="path4779"
     inkscape:connector-curvature="0" />
  <path
     style="fill:#604f7a;fill-opacity:1"
     d="M 5.334456,45.021186 C 3.793544,43.637622 2.713093,41.461566 2.528692,39.370305 2.187917,35.505625 4.324448,33.873526 5.024761,37.463554 l 0.450154,2.307632 0.743581,-2.25 c 0.737647,-2.232046 2.510318,-3.138553 2.510318,-1.283725 0,0.531451 1.575,0.037 3.5,-1.098776 3.932748,-2.320378 4.473475,-1.828775 1.49957,1.363337 -1.100236,1.180965 -1.887736,2.849649 -1.75,3.708187 0.153574,0.957255 -0.619777,1.684566 -1.99957,1.880528 -1.2375,0.175753 -2.25,0.683366 -2.25,1.128028 0,0.444662 1.0125,1.514761 2.25,2.377997 l 2.25,1.56952 -2.194236,0.05245 C 8.827747,47.247582 6.712693,46.258686 5.334456,45.021186 Z"
     id="path4777"
     inkscape:connector-curvature="0" />
  <path
     style="fill:#ac5841;fill-opacity:1"
     d="M 2.1828,28.72946 C 3.231072,21.73908 3.567603,21.15356 5.752751,22.518208 7.037375,23.320469 7.44728,24.446657 7.10053,26.221145 6.826465,27.623667 6.477478,29.671186 6.325004,30.771186 6.157543,31.979308 5.142686,32.90427 3.761838,33.107309 1.575355,33.428807 1.506653,33.238332 2.1828,28.72946 Z"
     id="path4773"
     inkscape:connector-curvature="0" />
  <path
     style="fill:#554679;fill-opacity:0.94117647"
     d="m 47.590432,24.253549 c -0.90112,-0.52625 -1.92495,-2.098552 -2.27518,-3.494004 -0.48763,-1.942842 -0.0318,-3.097906 1.946,-4.930839 2.41189,-2.235266 2.46318,-2.463233 0.77518,-3.445178 -1.62477,-0.945161 -1.63634,-1.054601 -0.11432,-1.081933 2.16008,-0.03879 4.8067,3.704855 4.8067,6.799086 0,1.708697 -0.42511,2.221351 -1.5,1.808879 -0.825,-0.316583 -1.5,-0.15556 -1.5,0.357827 0,1.314657 3.84074,3.220259 5.02067,2.491026 1.16965,-0.722882 1.31681,-5.17863 0.18674,-5.653894 -0.85588,-0.359946 -5.20741,-7.183957 -5.20741,-8.166183 0,-0.32823 1.0125,-1.136289 2.25,-1.795686 2.08876,-1.112988 2.14483,-1.071466 0.78243,0.579432 -1.31043,1.587925 -1.24584,1.957873 0.60318,3.455124 4.73395,3.83332 5.785,9.985536 2.14189,12.537276 -2.50509,1.754627 -5.48676,1.957678 -7.91588,0.539067 z"
     id="path4771"
     inkscape:connector-curvature="0" />
  <path
     style="fill:#604f7a;fill-opacity:1"
     d="m 53.293102,20.978058 c 0.37554,-0.986221 0.9347,-1.541221 1.24258,-1.233333 0.30789,0.307887 6.4e-4,1.114794 -0.68278,1.793128 -0.98762,0.980267 -1.10248,0.865403 -0.5598,-0.559795 z"
     id="path4767"
     inkscape:connector-curvature="0" />
  <path
     style="fill:#5a4d7b;fill-opacity:1"
     d="M 7.283316,18.521186 C 8.658023,15.888374 8.612882,15.757702 6.224013,15.454764 3.303889,15.084456 3.235381,14.696383 5.242234,9.89331 6.584387,6.681085 7.163229,6.271186 10.357244,6.271186 h 3.60159 l -1.638063,2.5 c -1.59804,2.438917 -1.576417,2.5 0.88499,2.5 1.387679,0 2.523053,0.320467 2.523053,0.712148 0,0.949053 -8.21405,9.287852 -9.148905,9.287852 -0.402869,0 -0.08634,-1.2375 0.703407,-2.75 z"
     id="path4765"
     inkscape:connector-curvature="0" />
  <path
     style="fill:#ac5841;fill-opacity:1"
     d="M 16.581342,8.593493 C 15.261527,7.003214 15.24397,7.026174 19.392686,4.917221 c 6.822229,-3.468002 20.520236,-3.000052 25.734516,0.87914 1.50938,1.122914 1.65454,1.706128 0.70839,2.846168 -1.0332,1.244924 -1.57075,1.243906 -4.07971,-0.0077 -5.07701,-2.532748 -11.9495,-2.766001 -18.28204,-0.620495 -4.836731,1.638717 -5.936471,1.73113 -6.8925,0.579184 z"
     id="path4761"
     inkscape:connector-curvature="0" />
</svg>
